<svg id="Layer_1" data-name="Layer 1" xmlns="http://www.w3.org/2000/svg" viewBox="0 0 497 497"><title>Origin</title><path d="M467.89,243.46c-6.25-107.24-92.11-193.1-199.35-199.35V9H243.46V44.11C136.22,50.36,50.36,136.22,44.11,243.46H9v25.08H44.11c6.25,107.24,92.11,193.1,199.35,199.35V503h25.08V467.89c107.24-6.25,193.1-92.11,199.35-199.35H503V243.46ZM71.22,225.92a187.33,187.33,0,0,1,154.7-154.7,15.1,15.1,0,0,1,17.54,14.87v97.42a60,60,0,0,1-60,60H86.09A15.1,15.1,0,0,1,71.22,225.92Zm172.24,200a15.1,15.1,0,0,1-17.54,14.87,187.33,187.33,0,0,1-154.7-154.7,15.1,15.1,0,0,1,14.87-17.54h97.42a60,60,0,0,1,60,59.95Zm10.42-140.07A29.91,29.91,0,0,1,243.14,229a7,7,0,0,1,10,6.36V256h5.78V235.35a7,7,0,0,1,10-6.33,29.92,29.92,0,0,1-15.05,56.82Zm186.9.24a187.33,187.33,0,0,1-154.7,154.7,15.1,15.1,0,0,1-17.54-14.87V328.49a60,60,0,0,1,59.95-59.95h97.42A15.1,15.1,0,0,1,440.78,286.08Zm-14.87-42.62H328.49a60,60,0,0,1-59.95-60V86.09a15.1,15.1,0,0,1,17.54-14.87,187.33,187.33,0,0,1,154.7,154.7A15.1,15.1,0,0,1,425.91,243.46Z" transform="translate(-7.5 -7.5)" style="fill:aqua;stroke:#000;stroke-miterlimit:10;stroke-width:3px"/></svg>